<mxfile host="Electron" modified="2024-03-10T14:23:21.511Z" agent="Mozilla/5.0 (Macintosh; Intel Mac OS X 10_15_7) AppleWebKit/537.36 (KHTML, like Gecko) draw.io/23.0.2 Chrome/120.0.6099.109 Electron/28.1.0 Safari/537.36" etag="DRaYY3eI2zU1rZAwFFP-" version="23.0.2" type="device">
  <diagram id="kgpKYQtTHZ0yAKxKKP6v" name="Page-1">
    <mxGraphModel dx="1189" dy="830" grid="0" gridSize="10" guides="1" tooltips="1" connect="1" arrows="1" fold="1" page="1" pageScale="1" pageWidth="850" pageHeight="1100" background="none" math="0" shadow="0">
      <root>
        <mxCell id="0" />
        <mxCell id="1" parent="0" />
        <mxCell id="JHsV2NFq5EFVDBlmEFgw-1" value="" style="rounded=0;whiteSpace=wrap;html=1;" parent="1" vertex="1">
          <mxGeometry x="111" y="41" width="667" height="294" as="geometry" />
        </mxCell>
        <mxCell id="3nuBFxr9cyL0pnOWT2aG-1" value="Producer" style="shape=umlLifeline;perimeter=lifelinePerimeter;container=1;collapsible=0;recursiveResize=0;rounded=0;shadow=0;strokeWidth=1;fontColor=#000000;fillColor=#FFFFFF;strokeColor=#000000;" parent="1" vertex="1">
          <mxGeometry x="141" y="80" width="100" height="179" as="geometry" />
        </mxCell>
        <mxCell id="3nuBFxr9cyL0pnOWT2aG-2" value="" style="points=[];perimeter=orthogonalPerimeter;rounded=0;shadow=0;strokeWidth=1;" parent="3nuBFxr9cyL0pnOWT2aG-1" vertex="1">
          <mxGeometry x="45" y="61" width="10" height="100" as="geometry" />
        </mxCell>
        <mxCell id="-zhrJO1nuz--op9bAYF--4" value="Processor" style="shape=umlLifeline;perimeter=lifelinePerimeter;container=1;collapsible=0;recursiveResize=0;rounded=0;shadow=0;strokeWidth=1;fontStyle=1" parent="1" vertex="1">
          <mxGeometry x="394" y="80" width="100" height="185" as="geometry" />
        </mxCell>
        <mxCell id="-zhrJO1nuz--op9bAYF--5" value="" style="points=[];perimeter=orthogonalPerimeter;rounded=0;shadow=0;strokeWidth=1;" parent="-zhrJO1nuz--op9bAYF--4" vertex="1">
          <mxGeometry x="45" y="67" width="10" height="100" as="geometry" />
        </mxCell>
        <mxCell id="-zhrJO1nuz--op9bAYF--6" value="Consumer" style="shape=umlLifeline;perimeter=lifelinePerimeter;container=1;collapsible=0;recursiveResize=0;rounded=0;shadow=0;strokeWidth=1;fontColor=#000000;fillColor=#FFFFFF;strokeColor=#000000;" parent="1" vertex="1">
          <mxGeometry x="647" y="80" width="100" height="190" as="geometry" />
        </mxCell>
        <mxCell id="-zhrJO1nuz--op9bAYF--7" value="" style="points=[];perimeter=orthogonalPerimeter;rounded=0;shadow=0;strokeWidth=1;" parent="-zhrJO1nuz--op9bAYF--6" vertex="1">
          <mxGeometry x="45" y="65" width="10" height="100" as="geometry" />
        </mxCell>
        <mxCell id="-zhrJO1nuz--op9bAYF--14" value="from-processor-to-consumer" style="verticalAlign=bottom;endArrow=block;shadow=0;strokeWidth=1;exitX=1;exitY=0.163;exitDx=0;exitDy=0;exitPerimeter=0;" parent="1" source="-zhrJO1nuz--op9bAYF--5" target="-zhrJO1nuz--op9bAYF--6" edge="1">
          <mxGeometry relative="1" as="geometry">
            <mxPoint x="580" y="240" as="sourcePoint" />
            <mxPoint x="705" y="240.00000000000006" as="targetPoint" />
          </mxGeometry>
        </mxCell>
        <mxCell id="R4Rg5na6bqBQ3S4XxZWp-3" value="&lt;b&gt;Class A&lt;/b&gt;" style="text;html=1;strokeColor=none;fillColor=none;align=center;verticalAlign=middle;whiteSpace=wrap;rounded=0;fontSize=14;" parent="1" vertex="1">
          <mxGeometry x="285" y="176" width="60" height="30" as="geometry" />
        </mxCell>
        <mxCell id="R4Rg5na6bqBQ3S4XxZWp-5" value="&lt;b&gt;Class B&lt;/b&gt;" style="text;html=1;strokeColor=none;fillColor=none;align=center;verticalAlign=middle;whiteSpace=wrap;rounded=0;fontSize=14;" parent="1" vertex="1">
          <mxGeometry x="541" y="197" width="60" height="30" as="geometry" />
        </mxCell>
        <mxCell id="3nuBFxr9cyL0pnOWT2aG-8" value="from-producer-to-processor" style="verticalAlign=bottom;endArrow=block;shadow=0;strokeWidth=1;fillColor=#FFFFFF;exitX=0.95;exitY=0.126;exitDx=0;exitDy=0;exitPerimeter=0;" parent="1" source="3nuBFxr9cyL0pnOWT2aG-2" target="-zhrJO1nuz--op9bAYF--4" edge="1">
          <mxGeometry relative="1" as="geometry">
            <mxPoint x="375" y="160" as="sourcePoint" />
            <mxPoint x="355" y="160.0000000000001" as="targetPoint" />
          </mxGeometry>
        </mxCell>
      </root>
    </mxGraphModel>
  </diagram>
</mxfile>
